<svg xmlns="http://www.w3.org/2000/svg" xmlns:xlink="http://www.w3.org/1999/xlink" viewBox="0,0,256,256" width="500px" height="500px" fill-rule="nonzero"><g fill="#eceff4" fill-rule="nonzero" stroke="none" stroke-width="1" stroke-linecap="butt" stroke-linejoin="miter" stroke-miterlimit="10" stroke-dasharray="" stroke-dashoffset="0" font-family="none" font-weight="none" font-size="none" text-anchor="none" style="mix-blend-mode: normal"><g transform="scale(5.12,5.12)"><path d="M24.90625,3.96875c-0.04297,0.00781 -0.08594,0.01953 -0.125,0.03125c-0.46484,0.10547 -0.79297,0.52344 -0.78125,1v6c-0.00391,0.35938 0.18359,0.69531 0.49609,0.87891c0.3125,0.17969 0.69531,0.17969 1.00781,0c0.3125,-0.18359 0.5,-0.51953 0.49609,-0.87891v-6c0.01172,-0.28906 -0.10547,-0.56641 -0.3125,-0.76172c-0.21094,-0.19922 -0.49609,-0.29687 -0.78125,-0.26953zM10.65625,9.84375c-0.375,0.06641 -0.67578,0.33984 -0.78125,0.70313c-0.10547,0.36719 0.00391,0.75781 0.28125,1.01563l4.25,4.25c0.24219,0.29688 0.62891,0.43359 1.00391,0.34766c0.37109,-0.08594 0.66406,-0.37891 0.75,-0.75c0.08594,-0.375 -0.05078,-0.76172 -0.34766,-1.00391l-4.25,-4.25c-0.20703,-0.22266 -0.50781,-0.33594 -0.8125,-0.3125c-0.03125,0 -0.0625,0 -0.09375,0zM39.03125,9.84375c-0.22656,0.03125 -0.4375,0.14453 -0.59375,0.3125l-4.25,4.25c-0.29687,0.24219 -0.43359,0.62891 -0.34766,1.00391c0.08594,0.37109 0.37891,0.66406 0.75,0.75c0.375,0.08594 0.76172,-0.05078 1.00391,-0.34766l4.25,-4.25c0.3125,-0.29687 0.40234,-0.76172 0.21875,-1.15234c-0.1875,-0.39453 -0.60156,-0.62109 -1.03125,-0.56641zM25,15c-5.51562,0 -10,4.48438 -10,10c0,5.51563 4.48438,10 10,10c5.51563,0 10,-4.48437 10,-10c0,-5.51562 -4.48437,-10 -10,-10zM4.71875,24c-0.55078,0.07813 -0.9375,0.58984 -0.85937,1.14063c0.07813,0.55078 0.58984,0.9375 1.14063,0.85938h6c0.35938,0.00391 0.69531,-0.18359 0.87891,-0.49609c0.17969,-0.3125 0.17969,-0.69531 0,-1.00781c-0.18359,-0.3125 -0.51953,-0.5 -0.87891,-0.49609h-6c-0.03125,0 -0.0625,0 -0.09375,0c-0.03125,0 -0.0625,0 -0.09375,0c-0.03125,0 -0.0625,0 -0.09375,0zM38.71875,24c-0.55078,0.07813 -0.9375,0.58984 -0.85937,1.14063c0.07813,0.55078 0.58984,0.9375 1.14063,0.85938h6c0.35938,0.00391 0.69531,-0.18359 0.87891,-0.49609c0.17969,-0.3125 0.17969,-0.69531 0,-1.00781c-0.18359,-0.3125 -0.51953,-0.5 -0.87891,-0.49609h-6c-0.03125,0 -0.0625,0 -0.09375,0c-0.03125,0 -0.0625,0 -0.09375,0c-0.03125,0 -0.0625,0 -0.09375,0zM15,33.875c-0.22656,0.03125 -0.4375,0.14453 -0.59375,0.3125l-4.25,4.25c-0.29687,0.24219 -0.43359,0.62891 -0.34766,1.00391c0.08594,0.37109 0.37891,0.66406 0.75,0.75c0.375,0.08594 0.76172,-0.05078 1.00391,-0.34766l4.25,-4.25c0.29688,-0.28516 0.38672,-0.72656 0.22656,-1.10547c-0.15625,-0.37891 -0.53516,-0.62109 -0.94531,-0.61328c-0.03125,0 -0.0625,0 -0.09375,0zM34.6875,33.875c-0.375,0.06641 -0.67578,0.33984 -0.78125,0.70313c-0.10547,0.36719 0.00391,0.75781 0.28125,1.01563l4.25,4.25c0.24219,0.29688 0.62891,0.43359 1.00391,0.34766c0.37109,-0.08594 0.66406,-0.37891 0.75,-0.75c0.08594,-0.375 -0.05078,-0.76172 -0.34766,-1.00391l-4.25,-4.25c-0.1875,-0.19922 -0.44531,-0.30859 -0.71875,-0.3125c-0.03125,0 -0.0625,0 -0.09375,0c-0.03125,0 -0.0625,0 -0.09375,0zM24.90625,37.96875c-0.04297,0.00781 -0.08594,0.01953 -0.125,0.03125c-0.46484,0.10547 -0.79297,0.52344 -0.78125,1v6c-0.00391,0.35938 0.18359,0.69531 0.49609,0.87891c0.3125,0.17969 0.69531,0.17969 1.00781,0c0.3125,-0.18359 0.5,-0.51953 0.49609,-0.87891v-6c0.01172,-0.28906 -0.10547,-0.56641 -0.3125,-0.76172c-0.21094,-0.19922 -0.49609,-0.29687 -0.78125,-0.26953z"></path></g></g></svg>