<svg xmlns="http://www.w3.org/2000/svg" xmlns:xlink="http://www.w3.org/1999/xlink" viewBox="0,0,256,256" width="480px" height="480px" fill-rule="nonzero"><g fill="#eceff4" fill-rule="nonzero" stroke="none" stroke-width="1" stroke-linecap="butt" stroke-linejoin="miter" stroke-miterlimit="10" stroke-dasharray="" stroke-dashoffset="0" font-family="none" font-weight="none" font-size="none" text-anchor="none" style="mix-blend-mode: normal"><g transform="scale(8.53333,8.53333)"><path d="M1.70703,0.29297l-1.41406,1.41406l28,28l1.41406,-1.41406l-8.35937,-8.35937c0.41562,-0.89279 0.65234,-1.88467 0.65234,-2.93359v-4c0,-0.553 -0.447,-1 -1,-1c-0.553,0 -1,0.447 -1,1v4c0,0.47895 -0.08722,0.93309 -0.2168,1.36914l-1.7832,-1.7832v-11.58594c0,-1.657 -1.343,-3 -3,-3c-1.657,0 -3,1.343 -3,3v5.58594zM8.22461,12.39453c-0.132,0.169 -0.22461,0.37347 -0.22461,0.60547v4c0,3.519 2.614,6.43192 6,6.91992v2.08008h-3c-0.553,0 -1,0.447 -1,1c0,0.553 0.447,1 1,1h8c0.553,0 1,-0.447 1,-1c0,-0.553 -0.447,-1 -1,-1h-3v-2.08008c0.994,-0.143 1.91842,-0.49962 2.73242,-1.01562l-1.4707,-1.4707c-0.682,0.351 -1.44372,0.56641 -2.26172,0.56641c-2.757,0 -5,-2.243 -5,-5v-2.82812zM12,16.17188v0.82813c0,1.657 1.343,3 3,3c0.253,0 0.49452,-0.04061 0.72852,-0.09961z"></path></g></g></svg>