<svg xmlns="http://www.w3.org/2000/svg" xmlns:xlink="http://www.w3.org/1999/xlink" viewBox="0,0,256,256" width="480px" height="480px" fill-rule="nonzero"><g fill="#eceff4" fill-rule="nonzero" stroke="none" stroke-width="1" stroke-linecap="butt" stroke-linejoin="miter" stroke-miterlimit="10" stroke-dasharray="" stroke-dashoffset="0" font-family="none" font-weight="none" font-size="none" text-anchor="none" style="mix-blend-mode: normal"><g transform="scale(8.53333,8.53333)"><path d="M15,2c-1.657,0 -3,1.343 -3,3v12c0,1.657 1.343,3 3,3c1.657,0 3,-1.343 3,-3v-12c0,-1.657 -1.343,-3 -3,-3zM8.98438,11.98633c-0.55152,0.00862 -0.99193,0.46214 -0.98437,1.01367v4c0,3.514 2.61743,6.43077 6,6.91992v2.08008h-3c-0.36064,-0.0051 -0.69608,0.18438 -0.87789,0.49587c-0.18181,0.3115 -0.18181,0.69676 0,1.00825c0.18181,0.3115 0.51725,0.50097 0.87789,0.49587h3.83203c0.10799,0.01785 0.21818,0.01785 0.32617,0h3.8418c0.36064,0.0051 0.69608,-0.18438 0.87789,-0.49587c0.18181,-0.3115 0.18181,-0.69676 0,-1.00825c-0.18181,-0.3115 -0.51725,-0.50097 -0.87789,-0.49587h-3v-2.08008c3.38257,-0.48915 6,-3.40592 6,-6.91992v-4c0.0051,-0.36064 -0.18438,-0.69608 -0.49587,-0.87789c-0.3115,-0.18181 -0.69676,-0.18181 -1.00825,0c-0.3115,0.18181 -0.50097,0.51725 -0.49587,0.87789v4c0,2.73543 -2.16648,4.93392 -4.88672,4.99414c-0.04276,-0.00538 -0.08581,-0.00799 -0.12891,-0.00781c-0.03657,0.0006 -0.07309,0.00321 -0.10937,0.00781c-2.71471,-0.0663 -4.875,-2.26265 -4.875,-4.99414v-4c0.0037,-0.2703 -0.10218,-0.53059 -0.29351,-0.72155c-0.19133,-0.19097 -0.45182,-0.29634 -0.72212,-0.29212z"></path></g></g></svg>