<svg xmlns="http://www.w3.org/2000/svg" xmlns:xlink="http://www.w3.org/1999/xlink" viewBox="0,0,256,256" width="480px" height="480px" fill-rule="nonzero"><g fill="#eceff4" fill-rule="nonzero" stroke="none" stroke-width="1" stroke-linecap="butt" stroke-linejoin="miter" stroke-miterlimit="10" stroke-dasharray="" stroke-dashoffset="0" font-family="none" font-weight="none" font-size="none" text-anchor="none" style="mix-blend-mode: normal"><g transform="scale(8.53333,8.53333)"><path d="M8,4c-1.105,0 -2,0.895 -2,2v18c0,1.105 0.895,2 2,2h2c1.105,0 2,-0.895 2,-2v-18c0,-1.105 -0.895,-2 -2,-2zM20,4c-1.105,0 -2,0.895 -2,2v18c0,1.105 0.895,2 2,2h2c1.105,0 2,-0.895 2,-2v-18c0,-1.105 -0.895,-2 -2,-2z"></path></g></g></svg>