<svg xmlns="http://www.w3.org/2000/svg" xmlns:xlink="http://www.w3.org/1999/xlink" viewBox="0,0,256,256" width="480px" height="480px" fill-rule="nonzero"><g fill="#eceff4" fill-rule="nonzero" stroke="none" stroke-width="1" stroke-linecap="butt" stroke-linejoin="miter" stroke-miterlimit="10" stroke-dasharray="" stroke-dashoffset="0" font-family="none" font-weight="none" font-size="none" text-anchor="none" style="mix-blend-mode: normal"><g transform="scale(8.53333,8.53333)"><path d="M6,3c-0.55228,0 -1,0.44772 -1,1c0,0.0013 0,0.0026 0,0.00391v10.99609v10.99609c0,0.0013 0,0.0026 0,0.00391c0,0.55228 0.44772,1 1,1c0.20816,-0.0006 0.41095,-0.06615 0.58008,-0.1875l0.00195,0.00195l19.83398,-10.90625c0.35542,-0.1626 0.58353,-0.51736 0.58398,-0.9082c0.0002,-0.40228 -0.24067,-0.76552 -0.61133,-0.92187l-19.80664,-10.89258h-0.00195c-0.16936,-0.12066 -0.37213,-0.18552 -0.58008,-0.18555z"></path></g></g></svg>