<svg xmlns="http://www.w3.org/2000/svg" shape-rendering="geometricPrecision" text-rendering="geometricPrecision" image-rendering="optimizeQuality" fill-rule="evenodd" clip-rule="evenodd" viewBox="0 0 512 512"><path d="M105 0h302c57.928.154 104.845 47.072 105 104.995V407c-.155 57.925-47.072 104.844-104.996 104.998L105 512C47.074 511.844.156 464.925.002 407.003L0 105C.156 47.072 47.074.154 104.997 0H105zm203.888 207.875l-52.876 52.887 52.882 52.894-52.885 52.898-52.899-52.898 52.896-52.893-52.896-52.896 52.899-52.875 52.884 52.874 52.894-52.879 52.885 52.885-52.886 52.898-52.898-52.895zm-105.774-.003l-52.898 52.898-52.888-52.898 52.888-52.885 52.898 52.885z"/></svg>