<svg xmlns="http://www.w3.org/2000/svg" xmlns:xlink="http://www.w3.org/1999/xlink" viewBox="0,0,256,256" width="500px" height="500px" fill-rule="nonzero"><g fill="#eceff4" fill-rule="nonzero" stroke="none" stroke-width="1" stroke-linecap="butt" stroke-linejoin="miter" stroke-miterlimit="10" stroke-dasharray="" stroke-dashoffset="0" font-family="none" font-weight="none" font-size="none" text-anchor="none" style="mix-blend-mode: normal"><g transform="scale(5.12,5.12)"><path d="M24.1875,3c-0.91016,0 -1.85547,0.4375 -2.625,1.21875l-11.625,11.59375c-0.64062,0.56641 -0.9375,1.66406 -0.9375,2.4375v13.5c0,0.76563 0.31641,1.85938 0.90625,2.375l11.59375,11.5625c1.05469,1.07422 2.02734,1.3125 2.65625,1.3125c1.66797,0 2.84375,-1.52344 2.84375,-3.6875v-37c0,-2.27734 -1.46094,-3.3125 -2.8125,-3.3125zM3,15.96875c-1.67578,0 -3.03125,1.35547 -3.03125,3.03125v12c0,1.67578 1.35547,3.03125 3.03125,3.03125h4.46875c-0.32812,-0.78516 -0.46875,-1.62109 -0.46875,-2.28125v-13.5c0,-0.65625 0.16406,-1.48828 0.5,-2.28125zM31.90625,18.96875c-0.04297,0.00781 -0.08594,0.01953 -0.125,0.03125c-0.375,0.06641 -0.67578,0.33984 -0.78125,0.70313c-0.10547,0.36719 0.00391,0.75781 0.28125,1.01563l4.28125,4.28125l-4.28125,4.28125c-0.39844,0.39844 -0.39844,1.03906 0,1.4375c0.39844,0.39844 1.03906,0.39844 1.4375,0l4.28125,-4.28125l4.28125,4.28125c0.39844,0.39844 1.03906,0.39844 1.4375,0c0.39844,-0.39844 0.39844,-1.03906 0,-1.4375l-4.28125,-4.28125l4.28125,-4.28125c0.32422,-0.30078 0.41016,-0.77734 0.21484,-1.17187c-0.19141,-0.39844 -0.625,-0.61719 -1.05859,-0.54687c-0.22266,0.02344 -0.43359,0.125 -0.59375,0.28125l-4.28125,4.28125l-4.28125,-4.28125c-0.20703,-0.22266 -0.50781,-0.33594 -0.8125,-0.3125z"></path></g></g></svg>